<?xml version="1.0" encoding="UTF-8"?>
<svg xmlns="http://www.w3.org/2000/svg" version="1.1" width="300" height="300" viewBox="0 0 300 300"><rect x="0" y="0" width="300" height="300" fill="#ffffff"/><g transform="scale(9.091)"><g transform="translate(2,2)"><path fill-rule="evenodd" d="M9 0L9 1L8 1L8 7L9 7L9 8L5 8L5 10L4 10L4 9L3 9L3 8L2 8L2 9L0 9L0 11L1 11L1 10L2 10L2 11L3 11L3 12L1 12L1 13L3 13L3 12L4 12L4 11L5 11L5 14L2 14L2 15L1 15L1 18L0 18L0 19L2 19L2 20L0 20L0 21L3 21L3 20L4 20L4 19L5 19L5 20L6 20L6 21L8 21L8 24L9 24L9 26L8 26L8 27L9 27L9 29L10 29L10 27L11 27L11 26L10 26L10 25L11 25L11 24L12 24L12 23L13 23L13 22L9 22L9 21L8 21L8 20L10 20L10 19L11 19L11 18L13 18L13 19L12 19L12 20L11 20L11 21L12 21L12 20L13 20L13 21L14 21L14 23L16 23L16 24L14 24L14 25L13 25L13 28L12 28L12 29L14 29L14 28L17 28L17 27L18 27L18 26L19 26L19 25L18 25L18 26L17 26L17 25L16 25L16 24L18 24L18 21L19 21L19 20L20 20L20 27L19 27L19 29L21 29L21 28L20 28L20 27L21 27L21 25L29 25L29 23L28 23L28 20L29 20L29 19L28 19L28 18L29 18L29 15L28 15L28 12L29 12L29 11L28 11L28 8L23 8L23 9L27 9L27 10L24 10L24 11L25 11L25 12L26 12L26 11L27 11L27 13L25 13L25 14L24 14L24 13L23 13L23 12L22 12L22 11L23 11L23 10L22 10L22 8L21 8L21 6L20 6L20 5L21 5L21 3L19 3L19 2L20 2L20 0L17 0L17 1L15 1L15 0L14 0L14 1L15 1L15 2L13 2L13 3L14 3L14 4L12 4L12 5L10 5L10 7L9 7L9 4L10 4L10 3L9 3L9 2L11 2L11 3L12 3L12 2L11 2L11 1L12 1L12 0ZM16 2L16 3L15 3L15 4L14 4L14 6L13 6L13 5L12 5L12 6L11 6L11 7L10 7L10 10L9 10L9 9L8 9L8 10L7 10L7 9L6 9L6 10L7 10L7 11L6 11L6 12L8 12L8 13L6 13L6 14L8 14L8 13L10 13L10 10L11 10L11 11L12 11L12 12L11 12L11 14L10 14L10 15L9 15L9 16L8 16L8 15L6 15L6 16L5 16L5 15L4 15L4 16L3 16L3 15L2 15L2 16L3 16L3 17L4 17L4 18L5 18L5 19L6 19L6 20L7 20L7 19L8 19L8 17L9 17L9 19L10 19L10 18L11 18L11 17L9 17L9 16L10 16L10 15L11 15L11 16L12 16L12 17L14 17L14 19L13 19L13 20L14 20L14 21L15 21L15 22L16 22L16 23L17 23L17 21L18 21L18 20L19 20L19 19L20 19L20 17L19 17L19 19L18 19L18 20L17 20L17 17L16 17L16 16L21 16L21 18L22 18L22 19L23 19L23 16L24 16L24 15L23 15L23 14L21 14L21 13L18 13L18 12L21 12L21 8L20 8L20 6L19 6L19 5L20 5L20 4L19 4L19 3L18 3L18 2ZM16 3L16 4L15 4L15 6L14 6L14 8L12 8L12 9L11 9L11 10L13 10L13 9L14 9L14 12L15 12L15 10L16 10L16 11L18 11L18 10L19 10L19 11L20 11L20 10L19 10L19 6L18 6L18 8L17 8L17 9L16 9L16 7L17 7L17 5L19 5L19 4L17 4L17 3ZM16 4L16 5L17 5L17 4ZM12 6L12 7L13 7L13 6ZM15 6L15 7L16 7L16 6ZM8 10L8 12L9 12L9 10ZM15 13L15 15L16 15L16 13ZM17 13L17 14L18 14L18 13ZM12 14L12 15L13 15L13 14ZM19 14L19 15L21 15L21 14ZM26 14L26 17L25 17L25 18L24 18L24 19L27 19L27 18L28 18L28 17L27 17L27 16L28 16L28 15L27 15L27 14ZM22 15L22 16L23 16L23 15ZM6 16L6 17L8 17L8 16ZM14 16L14 17L15 17L15 18L16 18L16 17L15 17L15 16ZM26 17L26 18L27 18L27 17ZM2 18L2 19L3 19L3 18ZM6 18L6 19L7 19L7 18ZM14 19L14 20L15 20L15 19ZM21 21L21 24L24 24L24 21ZM22 22L22 23L23 23L23 22ZM26 22L26 23L25 23L25 24L28 24L28 23L27 23L27 22ZM9 23L9 24L10 24L10 23ZM15 25L15 26L16 26L16 25ZM22 26L22 27L24 27L24 26ZM26 26L26 27L28 27L28 28L22 28L22 29L29 29L29 26ZM0 0L0 7L7 7L7 0ZM1 1L1 6L6 6L6 1ZM2 2L2 5L5 5L5 2ZM22 0L22 7L29 7L29 0ZM23 1L23 6L28 6L28 1ZM24 2L24 5L27 5L27 2ZM0 22L0 29L7 29L7 22ZM1 23L1 28L6 28L6 23ZM2 24L2 27L5 27L5 24Z" fill="#000000"/></g></g></svg>
