<?xml version="1.0" encoding="UTF-8"?>
<svg xmlns="http://www.w3.org/2000/svg" version="1.1" width="300" height="300" viewBox="0 0 300 300"><rect x="0" y="0" width="300" height="300" fill="#ffffff"/><g transform="scale(9.091)"><g transform="translate(2,2)"><path fill-rule="evenodd" d="M9 0L9 1L10 1L10 2L8 2L8 4L9 4L9 6L8 6L8 7L9 7L9 6L10 6L10 9L8 9L8 8L6 8L6 9L8 9L8 10L6 10L6 11L5 11L5 12L6 12L6 13L7 13L7 12L6 12L6 11L9 11L9 15L7 15L7 14L5 14L5 13L4 13L4 10L5 10L5 8L3 8L3 10L2 10L2 9L1 9L1 10L0 10L0 13L1 13L1 14L0 14L0 15L1 15L1 17L0 17L0 21L4 21L4 20L5 20L5 19L4 19L4 18L6 18L6 19L7 19L7 20L6 20L6 21L8 21L8 23L9 23L9 21L8 21L8 19L10 19L10 22L11 22L11 23L10 23L10 24L8 24L8 26L10 26L10 27L9 27L9 28L10 28L10 29L11 29L11 28L10 28L10 27L12 27L12 29L15 29L15 28L16 28L16 27L17 27L17 29L19 29L19 28L20 28L20 29L21 29L21 27L20 27L20 25L24 25L24 26L26 26L26 29L28 29L28 28L27 28L27 27L29 27L29 26L26 26L26 25L29 25L29 22L27 22L27 23L28 23L28 24L25 24L25 22L26 22L26 20L27 20L27 21L28 21L28 20L29 20L29 19L28 19L28 18L27 18L27 19L26 19L26 20L24 20L24 18L23 18L23 17L25 17L25 16L27 16L27 17L28 17L28 16L27 16L27 15L29 15L29 13L28 13L28 11L29 11L29 9L27 9L27 8L25 8L25 9L24 9L24 11L22 11L22 10L23 10L23 9L21 9L21 8L20 8L20 7L21 7L21 6L20 6L20 7L19 7L19 5L18 5L18 4L20 4L20 5L21 5L21 4L20 4L20 3L21 3L21 1L20 1L20 0L14 0L14 1L13 1L13 0L12 0L12 1L13 1L13 3L12 3L12 2L11 2L11 1L10 1L10 0ZM15 1L15 2L14 2L14 3L13 3L13 4L12 4L12 5L14 5L14 6L13 6L13 7L12 7L12 6L11 6L11 7L12 7L12 8L11 8L11 9L13 9L13 10L9 10L9 11L12 11L12 13L11 13L11 12L10 12L10 13L11 13L11 14L14 14L14 15L15 15L15 14L14 14L14 13L13 13L13 10L14 10L14 9L13 9L13 7L14 7L14 6L15 6L15 8L16 8L16 9L15 9L15 10L17 10L17 9L18 9L18 10L19 10L19 12L17 12L17 11L16 11L16 12L15 12L15 13L17 13L17 14L16 14L16 15L17 15L17 17L19 17L19 19L18 19L18 18L15 18L15 19L17 19L17 20L14 20L14 18L13 18L13 19L12 19L12 20L11 20L11 22L13 22L13 21L12 21L12 20L14 20L14 21L16 21L16 22L14 22L14 23L13 23L13 24L10 24L10 26L12 26L12 27L14 27L14 26L15 26L15 27L16 27L16 26L17 26L17 25L16 25L16 24L17 24L17 23L20 23L20 20L21 20L21 19L20 19L20 16L21 16L21 18L22 18L22 19L23 19L23 18L22 18L22 16L25 16L25 15L24 15L24 14L21 14L21 15L20 15L20 13L21 13L21 10L20 10L20 9L18 9L18 8L19 8L19 7L18 7L18 6L17 6L17 8L16 8L16 6L15 6L15 4L16 4L16 5L17 5L17 4L18 4L18 3L15 3L15 2L16 2L16 1ZM18 1L18 2L19 2L19 3L20 3L20 1ZM10 2L10 5L11 5L11 2ZM25 10L25 12L23 12L23 13L25 13L25 14L27 14L27 13L25 13L25 12L27 12L27 11L26 11L26 10ZM19 12L19 13L18 13L18 14L17 14L17 15L18 15L18 14L19 14L19 13L20 13L20 12ZM2 13L2 14L1 14L1 15L2 15L2 20L4 20L4 19L3 19L3 18L4 18L4 14L3 14L3 13ZM5 15L5 16L7 16L7 15ZM9 15L9 16L8 16L8 17L6 17L6 18L7 18L7 19L8 19L8 18L10 18L10 19L11 19L11 18L12 18L12 17L16 17L16 16L13 16L13 15L12 15L12 16L11 16L11 15ZM17 20L17 22L19 22L19 20ZM21 21L21 24L24 24L24 21ZM22 22L22 23L23 23L23 22ZM15 23L15 24L14 24L14 25L15 25L15 26L16 26L16 25L15 25L15 24L16 24L16 23ZM19 24L19 25L20 25L20 24ZM12 25L12 26L13 26L13 25ZM18 26L18 28L19 28L19 26ZM22 27L22 28L23 28L23 29L25 29L25 27L24 27L24 28L23 28L23 27ZM0 0L0 7L7 7L7 0ZM1 1L1 6L6 6L6 1ZM2 2L2 5L5 5L5 2ZM22 0L22 7L29 7L29 0ZM23 1L23 6L28 6L28 1ZM24 2L24 5L27 5L27 2ZM0 22L0 29L7 29L7 22ZM1 23L1 28L6 28L6 23ZM2 24L2 27L5 27L5 24Z" fill="#000000"/></g></g></svg>
