<?xml version="1.0" encoding="UTF-8"?>
<svg xmlns="http://www.w3.org/2000/svg" version="1.1" width="300" height="300" viewBox="0 0 300 300"><rect x="0" y="0" width="300" height="300" fill="#ffffff"/><g transform="scale(9.091)"><g transform="translate(2,2)"><path fill-rule="evenodd" d="M8 0L8 3L9 3L9 5L8 5L8 9L7 9L7 8L6 8L6 9L7 9L7 10L6 10L6 11L7 11L7 12L5 12L5 11L4 11L4 12L5 12L5 13L7 13L7 14L6 14L6 15L5 15L5 14L4 14L4 13L2 13L2 11L3 11L3 10L5 10L5 8L2 8L2 9L3 9L3 10L1 10L1 9L0 9L0 10L1 10L1 11L0 11L0 12L1 12L1 14L0 14L0 16L1 16L1 15L2 15L2 16L3 16L3 14L4 14L4 17L0 17L0 21L1 21L1 18L3 18L3 19L2 19L2 20L3 20L3 19L4 19L4 21L5 21L5 20L6 20L6 21L8 21L8 22L9 22L9 21L10 21L10 22L11 22L11 23L9 23L9 24L8 24L8 27L9 27L9 24L10 24L10 27L11 27L11 26L12 26L12 29L13 29L13 27L15 27L15 26L16 26L16 28L14 28L14 29L19 29L19 28L20 28L20 27L21 27L21 28L22 28L22 25L24 25L24 26L26 26L26 25L25 25L25 22L26 22L26 23L27 23L27 22L28 22L28 24L27 24L27 29L28 29L28 28L29 28L29 27L28 27L28 25L29 25L29 17L27 17L27 16L28 16L28 15L29 15L29 14L27 14L27 13L29 13L29 10L27 10L27 11L28 11L28 12L27 12L27 13L24 13L24 12L26 12L26 11L25 11L25 10L26 10L26 9L29 9L29 8L26 8L26 9L24 9L24 8L18 8L18 9L24 9L24 10L23 10L23 11L24 11L24 12L23 12L23 13L22 13L22 12L20 12L20 14L21 14L21 13L22 13L22 15L19 15L19 14L18 14L18 15L15 15L15 14L16 14L16 13L17 13L17 12L19 12L19 10L16 10L16 11L15 11L15 12L16 12L16 13L15 13L15 14L11 14L11 11L12 11L12 12L13 12L13 13L14 13L14 12L13 12L13 10L14 10L14 9L15 9L15 8L17 8L17 6L16 6L16 3L17 3L17 2L19 2L19 3L18 3L18 4L20 4L20 5L21 5L21 2L20 2L20 1L21 1L21 0L20 0L20 1L19 1L19 0L17 0L17 2L16 2L16 1L15 1L15 0L14 0L14 1L15 1L15 5L14 5L14 4L13 4L13 0ZM9 1L9 3L10 3L10 2L12 2L12 1ZM11 3L11 4L10 4L10 6L9 6L9 7L10 7L10 6L11 6L11 7L12 7L12 8L11 8L11 9L12 9L12 10L13 10L13 9L14 9L14 6L13 6L13 7L12 7L12 6L11 6L11 5L12 5L12 3ZM18 5L18 7L19 7L19 5ZM15 6L15 7L16 7L16 6ZM20 6L20 7L21 7L21 6ZM9 8L9 9L8 9L8 10L10 10L10 8ZM12 8L12 9L13 9L13 8ZM20 10L20 11L22 11L22 10ZM16 11L16 12L17 12L17 11ZM7 12L7 13L8 13L8 14L7 14L7 15L6 15L6 16L7 16L7 17L6 17L6 18L7 18L7 17L8 17L8 15L9 15L9 13L10 13L10 12ZM23 14L23 17L22 17L22 16L19 16L19 15L18 15L18 17L19 17L19 18L18 18L18 19L17 19L17 18L16 18L16 19L17 19L17 20L15 20L15 22L14 22L14 25L15 25L15 23L16 23L16 21L17 21L17 20L18 20L18 19L19 19L19 18L20 18L20 19L21 19L21 20L23 20L23 19L24 19L24 20L25 20L25 21L27 21L27 20L28 20L28 19L27 19L27 17L26 17L26 16L27 16L27 15L26 15L26 14L25 14L25 15L24 15L24 14ZM12 15L12 16L11 16L11 17L12 17L12 18L9 18L9 19L6 19L6 20L9 20L9 19L10 19L10 21L11 21L11 22L13 22L13 20L14 20L14 19L12 19L12 18L14 18L14 16L13 16L13 15ZM25 15L25 16L24 16L24 17L23 17L23 18L22 18L22 17L20 17L20 18L22 18L22 19L23 19L23 18L24 18L24 17L25 17L25 18L26 18L26 17L25 17L25 16L26 16L26 15ZM9 16L9 17L10 17L10 16ZM12 16L12 17L13 17L13 16ZM4 17L4 18L5 18L5 17ZM25 19L25 20L27 20L27 19ZM11 20L11 21L12 21L12 20ZM19 21L19 22L17 22L17 23L18 23L18 24L19 24L19 25L20 25L20 24L19 24L19 23L20 23L20 21ZM21 21L21 24L24 24L24 21ZM22 22L22 23L23 23L23 22ZM11 23L11 24L12 24L12 26L13 26L13 24L12 24L12 23ZM16 24L16 25L17 25L17 24ZM17 26L17 28L19 28L19 27L20 27L20 26L19 26L19 27L18 27L18 26ZM24 27L24 29L25 29L25 27ZM9 28L9 29L11 29L11 28ZM0 0L0 7L7 7L7 0ZM1 1L1 6L6 6L6 1ZM2 2L2 5L5 5L5 2ZM22 0L22 7L29 7L29 0ZM23 1L23 6L28 6L28 1ZM24 2L24 5L27 5L27 2ZM0 22L0 29L7 29L7 22ZM1 23L1 28L6 28L6 23ZM2 24L2 27L5 27L5 24Z" fill="#000000"/></g></g></svg>
