<?xml version="1.0" encoding="UTF-8"?>
<svg xmlns="http://www.w3.org/2000/svg" version="1.1" width="300" height="300" viewBox="0 0 300 300"><rect x="0" y="0" width="300" height="300" fill="#ffffff"/><g transform="scale(9.091)"><g transform="translate(2,2)"><path fill-rule="evenodd" d="M13 0L13 1L14 1L14 0ZM15 0L15 1L16 1L16 0ZM17 0L17 3L18 3L18 4L17 4L17 5L16 5L16 4L15 4L15 2L14 2L14 3L13 3L13 2L12 2L12 1L11 1L11 3L9 3L9 2L10 2L10 1L9 1L9 2L8 2L8 4L9 4L9 5L10 5L10 4L11 4L11 6L10 6L10 7L11 7L11 8L10 8L10 9L13 9L13 10L12 10L12 11L11 11L11 15L10 15L10 13L8 13L8 12L10 12L10 10L8 10L8 8L6 8L6 9L5 9L5 8L3 8L3 9L1 9L1 10L0 10L0 12L1 12L1 13L0 13L0 14L1 14L1 15L2 15L2 14L1 14L1 13L3 13L3 16L4 16L4 14L5 14L5 12L6 12L6 13L8 13L8 15L7 15L7 14L6 14L6 15L5 15L5 16L6 16L6 17L4 17L4 18L3 18L3 17L2 17L2 16L1 16L1 17L0 17L0 21L2 21L2 19L3 19L3 21L4 21L4 20L5 20L5 21L8 21L8 23L10 23L10 24L12 24L12 25L11 25L11 26L10 26L10 25L9 25L9 24L8 24L8 26L10 26L10 27L9 27L9 28L11 28L11 29L15 29L15 28L16 28L16 29L17 29L17 28L20 28L20 29L21 29L21 27L22 27L22 28L23 28L23 29L25 29L25 27L26 27L26 29L28 29L28 28L27 28L27 27L29 27L29 26L27 26L27 25L29 25L29 24L28 24L28 23L27 23L27 24L25 24L25 22L26 22L26 19L25 19L25 20L24 20L24 18L23 18L23 17L25 17L25 16L27 16L27 17L26 17L26 18L27 18L27 22L28 22L28 20L29 20L29 19L28 19L28 18L27 18L27 17L28 17L28 16L29 16L29 14L28 14L28 11L29 11L29 9L27 9L27 8L25 8L25 9L24 9L24 11L22 11L22 10L23 10L23 9L21 9L21 6L20 6L20 5L21 5L21 1L20 1L20 0ZM18 1L18 3L20 3L20 1ZM12 4L12 5L14 5L14 6L13 6L13 7L12 7L12 6L11 6L11 7L12 7L12 8L14 8L14 6L15 6L15 8L16 8L16 6L15 6L15 5L14 5L14 4ZM18 4L18 5L20 5L20 4ZM8 6L8 7L9 7L9 6ZM17 6L17 11L18 11L18 10L19 10L19 12L20 12L20 13L18 13L18 12L17 12L17 13L16 13L16 11L13 11L13 12L12 12L12 13L13 13L13 15L11 15L11 16L9 16L9 15L8 15L8 16L7 16L7 15L6 15L6 16L7 16L7 17L6 17L6 18L5 18L5 20L7 20L7 19L6 19L6 18L7 18L7 17L8 17L8 16L9 16L9 17L13 17L13 16L14 16L14 18L15 18L15 17L17 17L17 16L18 16L18 17L19 17L19 19L18 19L18 18L17 18L17 20L19 20L19 21L18 21L18 22L16 22L16 21L15 21L15 22L13 22L13 21L12 21L12 20L13 20L13 19L12 19L12 20L11 20L11 18L10 18L10 20L9 20L9 19L8 19L8 21L9 21L9 22L10 22L10 23L12 23L12 22L13 22L13 24L14 24L14 25L12 25L12 26L14 26L14 25L17 25L17 26L15 26L15 27L18 27L18 25L19 25L19 26L23 26L23 28L24 28L24 27L25 27L25 26L24 26L24 25L19 25L19 22L20 22L20 20L21 20L21 19L22 19L22 20L23 20L23 18L22 18L22 16L25 16L25 15L24 15L24 14L21 14L21 10L20 10L20 9L18 9L18 8L19 8L19 7L20 7L20 6L19 6L19 7L18 7L18 6ZM3 9L3 10L2 10L2 11L1 11L1 12L2 12L2 11L3 11L3 10L4 10L4 11L5 11L5 10L4 10L4 9ZM6 9L6 10L7 10L7 9ZM15 9L15 10L16 10L16 9ZM26 9L26 10L25 10L25 12L23 12L23 13L25 13L25 14L27 14L27 12L26 12L26 11L27 11L27 9ZM6 11L6 12L7 12L7 11ZM25 12L25 13L26 13L26 12ZM14 14L14 15L15 15L15 16L16 16L16 15L17 15L17 14ZM18 14L18 16L19 16L19 15L20 15L20 19L21 19L21 14ZM27 15L27 16L28 16L28 15ZM1 17L1 18L2 18L2 17ZM15 19L15 20L16 20L16 19ZM11 21L11 22L12 22L12 21ZM21 21L21 24L24 24L24 21ZM15 22L15 24L16 24L16 22ZM22 22L22 23L23 23L23 22ZM17 23L17 25L18 25L18 23ZM11 27L11 28L14 28L14 27ZM0 0L0 7L7 7L7 0ZM1 1L1 6L6 6L6 1ZM2 2L2 5L5 5L5 2ZM22 0L22 7L29 7L29 0ZM23 1L23 6L28 6L28 1ZM24 2L24 5L27 5L27 2ZM0 22L0 29L7 29L7 22ZM1 23L1 28L6 28L6 23ZM2 24L2 27L5 27L5 24Z" fill="#000000"/></g></g></svg>
