<?xml version="1.0" encoding="UTF-8"?>
<svg xmlns="http://www.w3.org/2000/svg" version="1.1" width="300" height="300" viewBox="0 0 300 300"><rect x="0" y="0" width="300" height="300" fill="#ffffff"/><g transform="scale(9.091)"><g transform="translate(2,2)"><path fill-rule="evenodd" d="M10 0L10 2L11 2L11 3L10 3L10 5L11 5L11 6L10 6L10 7L9 7L9 6L8 6L8 8L6 8L6 9L4 9L4 8L2 8L2 10L0 10L0 11L1 11L1 14L3 14L3 15L4 15L4 16L5 16L5 18L3 18L3 19L2 19L2 20L1 20L1 21L3 21L3 19L5 19L5 21L8 21L8 23L9 23L9 22L10 22L10 24L9 24L9 25L8 25L8 27L9 27L9 28L10 28L10 29L11 29L11 28L10 28L10 26L12 26L12 29L14 29L14 28L15 28L15 29L18 29L18 28L15 28L15 27L18 27L18 25L19 25L19 26L21 26L21 25L23 25L23 26L22 26L22 27L21 27L21 28L20 28L20 27L19 27L19 28L20 28L20 29L22 29L22 27L23 27L23 26L24 26L24 28L23 28L23 29L24 29L24 28L25 28L25 26L24 26L24 25L25 25L25 24L26 24L26 23L25 23L25 22L27 22L27 24L29 24L29 23L28 23L28 22L29 22L29 21L26 21L26 20L29 20L29 18L27 18L27 17L26 17L26 18L25 18L25 17L24 17L24 16L23 16L23 15L22 15L22 14L23 14L23 13L24 13L24 12L23 12L23 11L21 11L21 13L20 13L20 14L19 14L19 13L17 13L17 15L16 15L16 12L15 12L15 11L18 11L18 12L20 12L20 11L18 11L18 10L17 10L17 8L19 8L19 6L20 6L20 7L21 7L21 6L20 6L20 5L21 5L21 4L20 4L20 3L21 3L21 0L20 0L20 1L19 1L19 0L18 0L18 1L19 1L19 2L20 2L20 3L18 3L18 2L16 2L16 1L17 1L17 0L15 0L15 3L14 3L14 1L13 1L13 3L12 3L12 1L11 1L11 0ZM11 3L11 4L12 4L12 3ZM15 3L15 5L16 5L16 6L15 6L15 9L16 9L16 8L17 8L17 7L18 7L18 6L19 6L19 5L20 5L20 4L18 4L18 3ZM8 4L8 5L9 5L9 4ZM13 4L13 5L12 5L12 6L11 6L11 7L12 7L12 6L13 6L13 8L11 8L11 10L10 10L10 8L9 8L9 10L8 10L8 9L6 9L6 10L7 10L7 11L6 11L6 12L4 12L4 11L5 11L5 10L4 10L4 11L3 11L3 10L2 10L2 12L3 12L3 14L4 14L4 13L6 13L6 14L5 14L5 16L8 16L8 15L9 15L9 16L11 16L11 18L10 18L10 17L6 17L6 18L5 18L5 19L6 19L6 20L8 20L8 21L10 21L10 22L12 22L12 24L10 24L10 25L9 25L9 26L10 26L10 25L14 25L14 26L15 26L15 25L16 25L16 24L17 24L17 25L18 25L18 24L20 24L20 20L21 20L21 19L22 19L22 20L24 20L24 19L25 19L25 20L26 20L26 19L25 19L25 18L23 18L23 19L22 19L22 17L21 17L21 18L20 18L20 20L19 20L19 21L18 21L18 24L17 24L17 23L16 23L16 22L17 22L17 16L18 16L18 17L20 17L20 16L21 16L21 14L20 14L20 15L17 15L17 16L16 16L16 15L13 15L13 13L14 13L14 11L15 11L15 10L14 10L14 11L13 11L13 8L14 8L14 6L13 6L13 5L14 5L14 4ZM17 4L17 5L18 5L18 4ZM16 6L16 7L17 7L17 6ZM20 8L20 9L23 9L23 8ZM24 8L24 10L25 10L25 8ZM26 9L26 11L25 11L25 12L26 12L26 13L25 13L25 16L26 16L26 15L27 15L27 16L29 16L29 15L28 15L28 14L29 14L29 12L28 12L28 11L29 11L29 10L28 10L28 11L27 11L27 9ZM7 11L7 12L6 12L6 13L7 13L7 14L6 14L6 15L7 15L7 14L9 14L9 15L12 15L12 18L13 18L13 20L15 20L15 21L12 21L12 20L10 20L10 19L9 19L9 18L8 18L8 20L10 20L10 21L12 21L12 22L15 22L15 21L16 21L16 18L15 18L15 19L14 19L14 18L13 18L13 17L14 17L14 16L13 16L13 15L12 15L12 13L13 13L13 12L12 12L12 11L9 11L9 13L8 13L8 11ZM26 11L26 12L27 12L27 11ZM22 12L22 13L23 13L23 12ZM9 13L9 14L11 14L11 13ZM26 13L26 14L28 14L28 13ZM1 15L1 16L2 16L2 15ZM0 18L0 19L1 19L1 18ZM6 18L6 19L7 19L7 18ZM21 21L21 24L24 24L24 21ZM22 22L22 23L23 23L23 22ZM15 23L15 24L16 24L16 23ZM28 26L28 27L27 27L27 28L26 28L26 29L27 29L27 28L29 28L29 26ZM13 27L13 28L14 28L14 27ZM0 0L0 7L7 7L7 0ZM1 1L1 6L6 6L6 1ZM2 2L2 5L5 5L5 2ZM22 0L22 7L29 7L29 0ZM23 1L23 6L28 6L28 1ZM24 2L24 5L27 5L27 2ZM0 22L0 29L7 29L7 22ZM1 23L1 28L6 28L6 23ZM2 24L2 27L5 27L5 24Z" fill="#000000"/></g></g></svg>
