<?xml version="1.0" encoding="UTF-8"?>
<svg xmlns="http://www.w3.org/2000/svg" version="1.1" width="300" height="300" viewBox="0 0 300 300"><rect x="0" y="0" width="300" height="300" fill="#ffffff"/><g transform="scale(9.091)"><g transform="translate(2,2)"><path fill-rule="evenodd" d="M8 0L8 3L9 3L9 4L10 4L10 5L11 5L11 6L10 6L10 8L9 8L9 5L8 5L8 9L7 9L7 8L6 8L6 9L5 9L5 8L2 8L2 9L0 9L0 11L1 11L1 13L2 13L2 14L1 14L1 16L0 16L0 21L1 21L1 16L2 16L2 19L3 19L3 20L2 20L2 21L5 21L5 19L7 19L7 20L6 20L6 21L7 21L7 20L9 20L9 21L8 21L8 22L9 22L9 24L8 24L8 27L10 27L10 28L9 28L9 29L10 29L10 28L11 28L11 29L12 29L12 28L11 28L11 26L9 26L9 24L10 24L10 25L12 25L12 27L14 27L14 26L13 26L13 24L14 24L14 23L15 23L15 25L18 25L18 26L15 26L15 28L14 28L14 29L17 29L17 28L20 28L20 27L21 27L21 28L22 28L22 25L24 25L24 26L25 26L25 27L24 27L24 29L25 29L25 27L26 27L26 26L27 26L27 29L28 29L28 28L29 28L29 27L28 27L28 25L26 25L26 26L25 26L25 22L26 22L26 23L27 23L27 24L29 24L29 23L27 23L27 22L28 22L28 21L29 21L29 17L27 17L27 16L28 16L28 15L29 15L29 10L27 10L27 9L29 9L29 8L26 8L26 9L24 9L24 8L21 8L21 6L20 6L20 3L21 3L21 2L20 2L20 1L21 1L21 0L20 0L20 1L19 1L19 0L18 0L18 4L19 4L19 5L18 5L18 7L19 7L19 6L20 6L20 8L18 8L18 9L24 9L24 10L23 10L23 11L24 11L24 12L23 12L23 13L22 13L22 12L21 12L21 13L22 13L22 15L21 15L21 14L20 14L20 13L19 13L19 12L15 12L15 11L16 11L16 10L17 10L17 9L15 9L15 8L17 8L17 4L16 4L16 7L15 7L15 4L14 4L14 0L11 0L11 2L9 2L9 1L10 1L10 0ZM15 0L15 1L16 1L16 2L17 2L17 0ZM12 1L12 3L11 3L11 5L12 5L12 3L13 3L13 1ZM13 5L13 7L12 7L12 6L11 6L11 8L10 8L10 9L12 9L12 10L9 10L9 9L8 9L8 10L7 10L7 9L6 9L6 10L5 10L5 11L6 11L6 12L5 12L5 13L6 13L6 14L8 14L8 15L2 15L2 16L3 16L3 17L4 17L4 18L3 18L3 19L4 19L4 18L5 18L5 17L6 17L6 18L8 18L8 19L9 19L9 18L10 18L10 19L11 19L11 20L10 20L10 21L9 21L9 22L11 22L11 20L12 20L12 19L11 19L11 18L13 18L13 19L15 19L15 18L14 18L14 17L16 17L16 20L19 20L19 19L18 19L18 18L17 18L17 16L18 16L18 17L19 17L19 18L20 18L20 19L21 19L21 20L23 20L23 19L24 19L24 20L25 20L25 21L27 21L27 20L28 20L28 19L27 19L27 18L25 18L25 17L26 17L26 16L27 16L27 15L28 15L28 14L27 14L27 15L26 15L26 14L25 14L25 15L24 15L24 14L23 14L23 17L22 17L22 16L20 16L20 15L19 15L19 14L18 14L18 13L17 13L17 14L15 14L15 15L14 15L14 17L13 17L13 15L12 15L12 14L14 14L14 13L12 13L12 10L15 10L15 9L14 9L14 8L15 8L15 7L14 7L14 5ZM2 9L2 10L3 10L3 12L4 12L4 10L3 10L3 9ZM6 10L6 11L7 11L7 10ZM8 10L8 11L9 11L9 12L8 12L8 13L9 13L9 14L11 14L11 12L10 12L10 11L9 11L9 10ZM18 10L18 11L19 11L19 10ZM20 10L20 11L22 11L22 10ZM25 10L25 11L26 11L26 13L27 13L27 12L28 12L28 11L26 11L26 10ZM13 11L13 12L14 12L14 11ZM6 12L6 13L7 13L7 12ZM24 12L24 13L25 13L25 12ZM17 14L17 15L18 15L18 16L19 16L19 15L18 15L18 14ZM9 15L9 17L8 17L8 18L9 18L9 17L10 17L10 15ZM11 15L11 17L12 17L12 15ZM15 15L15 16L16 16L16 15ZM25 15L25 16L24 16L24 17L23 17L23 18L22 18L22 17L20 17L20 18L22 18L22 19L23 19L23 18L24 18L24 17L25 17L25 16L26 16L26 15ZM6 16L6 17L7 17L7 16ZM25 19L25 20L27 20L27 19ZM13 20L13 21L14 21L14 22L17 22L17 24L18 24L18 21L15 21L15 20ZM19 21L19 22L20 22L20 21ZM21 21L21 24L24 24L24 21ZM12 22L12 24L13 24L13 22ZM22 22L22 23L23 23L23 22ZM19 24L19 25L20 25L20 24ZM18 26L18 27L20 27L20 26ZM0 0L0 7L7 7L7 0ZM1 1L1 6L6 6L6 1ZM2 2L2 5L5 5L5 2ZM22 0L22 7L29 7L29 0ZM23 1L23 6L28 6L28 1ZM24 2L24 5L27 5L27 2ZM0 22L0 29L7 29L7 22ZM1 23L1 28L6 28L6 23ZM2 24L2 27L5 27L5 24Z" fill="#000000"/></g></g></svg>
