<?xml version="1.0" encoding="UTF-8"?>
<svg xmlns="http://www.w3.org/2000/svg" version="1.1" width="300" height="300" viewBox="0 0 300 300"><rect x="0" y="0" width="300" height="300" fill="#ffffff"/><g transform="scale(9.091)"><g transform="translate(2,2)"><path fill-rule="evenodd" d="M10 0L10 1L11 1L11 2L9 2L9 1L8 1L8 2L9 2L9 3L12 3L12 4L9 4L9 5L8 5L8 8L4 8L4 9L2 9L2 10L1 10L1 12L0 12L0 14L2 14L2 12L3 12L3 13L4 13L4 14L3 14L3 15L0 15L0 16L2 16L2 17L3 17L3 16L4 16L4 18L3 18L3 19L5 19L5 20L0 20L0 21L7 21L7 20L6 20L6 19L9 19L9 21L8 21L8 25L9 25L9 27L10 27L10 29L11 29L11 28L12 28L12 29L13 29L13 28L12 28L12 27L10 27L10 25L12 25L12 26L13 26L13 22L14 22L14 24L15 24L15 28L16 28L16 29L22 29L22 28L24 28L24 29L27 29L27 28L28 28L28 27L29 27L29 26L27 26L27 28L24 28L24 27L25 27L25 26L26 26L26 25L28 25L28 23L29 23L29 22L28 22L28 23L27 23L27 22L26 22L26 23L27 23L27 24L25 24L25 21L27 21L27 20L25 20L25 19L26 19L26 18L24 18L24 17L26 17L26 15L27 15L27 16L28 16L28 15L27 15L27 14L26 14L26 15L24 15L24 14L25 14L25 13L24 13L24 11L23 11L23 10L22 10L22 9L24 9L24 10L26 10L26 9L24 9L24 8L22 8L22 9L20 9L20 8L21 8L21 4L20 4L20 3L21 3L21 1L20 1L20 0L18 0L18 2L17 2L17 0L15 0L15 1L14 1L14 0L13 0L13 2L15 2L15 4L13 4L13 3L12 3L12 1L11 1L11 0ZM19 1L19 2L20 2L20 1ZM18 3L18 4L16 4L16 5L14 5L14 6L13 6L13 4L12 4L12 5L10 5L10 6L9 6L9 7L10 7L10 6L11 6L11 7L12 7L12 6L13 6L13 8L12 8L12 9L11 9L11 10L12 10L12 11L13 11L13 9L14 9L14 12L16 12L16 13L17 13L17 14L15 14L15 13L14 13L14 15L15 15L15 17L16 17L16 18L19 18L19 16L20 16L20 15L22 15L22 16L23 16L23 17L20 17L20 19L21 19L21 20L24 20L24 19L23 19L23 17L24 17L24 16L23 16L23 14L21 14L21 13L23 13L23 12L22 12L22 11L20 11L20 10L19 10L19 9L18 9L18 8L17 8L17 7L18 7L18 5L19 5L19 3ZM14 6L14 7L15 7L15 6ZM16 6L16 7L17 7L17 6ZM19 6L19 8L20 8L20 6ZM8 8L8 9L6 9L6 10L8 10L8 11L10 11L10 12L9 12L9 13L8 13L8 12L7 12L7 11L6 11L6 12L7 12L7 13L5 13L5 11L4 11L4 10L3 10L3 11L4 11L4 13L5 13L5 14L9 14L9 13L12 13L12 15L13 15L13 13L12 13L12 12L11 12L11 11L10 11L10 9L9 9L9 8ZM14 8L14 9L15 9L15 11L17 11L17 10L18 10L18 12L19 12L19 13L18 13L18 14L17 14L17 15L16 15L16 16L17 16L17 15L18 15L18 16L19 16L19 14L20 14L20 13L21 13L21 12L19 12L19 10L18 10L18 9L17 9L17 10L16 10L16 8ZM27 8L27 11L28 11L28 8ZM8 9L8 10L9 10L9 9ZM25 11L25 12L26 12L26 13L27 13L27 12L26 12L26 11ZM28 12L28 14L29 14L29 12ZM10 14L10 17L8 17L8 16L9 16L9 15L5 15L5 19L6 19L6 18L9 18L9 19L11 19L11 20L10 20L10 22L11 22L11 23L9 23L9 25L10 25L10 24L11 24L11 23L12 23L12 22L13 22L13 21L12 21L12 20L14 20L14 21L15 21L15 23L16 23L16 24L17 24L17 23L19 23L19 24L18 24L18 25L20 25L20 28L21 28L21 27L22 27L22 26L24 26L24 25L20 25L20 23L19 23L19 21L20 21L20 20L19 20L19 21L17 21L17 20L18 20L18 19L17 19L17 20L16 20L16 19L15 19L15 20L14 20L14 19L12 19L12 18L11 18L11 14ZM6 16L6 17L7 17L7 16ZM0 17L0 18L1 18L1 17ZM13 17L13 18L14 18L14 17ZM28 17L28 18L27 18L27 19L28 19L28 18L29 18L29 17ZM21 18L21 19L22 19L22 18ZM28 20L28 21L29 21L29 20ZM11 21L11 22L12 22L12 21ZM16 21L16 22L17 22L17 21ZM21 21L21 24L24 24L24 21ZM22 22L22 23L23 23L23 22ZM16 25L16 26L17 26L17 27L18 27L18 26L17 26L17 25ZM0 0L0 7L7 7L7 0ZM1 1L1 6L6 6L6 1ZM2 2L2 5L5 5L5 2ZM22 0L22 7L29 7L29 0ZM23 1L23 6L28 6L28 1ZM24 2L24 5L27 5L27 2ZM0 22L0 29L7 29L7 22ZM1 23L1 28L6 28L6 23ZM2 24L2 27L5 27L5 24Z" fill="#000000"/></g></g></svg>
