<?xml version="1.0" encoding="UTF-8"?>
<svg xmlns="http://www.w3.org/2000/svg" version="1.1" width="300" height="300" viewBox="0 0 300 300"><rect x="0" y="0" width="300" height="300" fill="#ffffff"/><g transform="scale(9.091)"><g transform="translate(2,2)"><path fill-rule="evenodd" d="M10 0L10 1L8 1L8 7L9 7L9 6L10 6L10 8L5 8L5 9L8 9L8 10L4 10L4 9L3 9L3 8L2 8L2 9L3 9L3 10L4 10L4 11L2 11L2 10L1 10L1 11L0 11L0 12L3 12L3 14L2 14L2 13L0 13L0 14L2 14L2 17L1 17L1 15L0 15L0 17L1 17L1 18L0 18L0 19L2 19L2 20L0 20L0 21L2 21L2 20L3 20L3 21L5 21L5 20L6 20L6 21L7 21L7 20L6 20L6 19L7 19L7 18L8 18L8 24L9 24L9 26L8 26L8 27L9 27L9 26L10 26L10 28L9 28L9 29L12 29L12 28L11 28L11 27L13 27L13 29L17 29L17 27L15 27L15 28L14 28L14 24L12 24L12 25L13 25L13 26L11 26L11 24L9 24L9 23L10 23L10 22L11 22L11 23L13 23L13 22L11 22L11 21L13 21L13 19L12 19L12 18L13 18L13 17L12 17L12 16L10 16L10 15L11 15L11 12L12 12L12 13L14 13L14 14L13 14L13 15L14 15L14 17L15 17L15 16L16 16L16 15L17 15L17 17L16 17L16 19L15 19L15 20L14 20L14 23L15 23L15 24L16 24L16 26L19 26L19 23L20 23L20 27L18 27L18 29L21 29L21 28L20 28L20 27L21 27L21 25L25 25L25 26L26 26L26 27L28 27L28 28L22 28L22 29L29 29L29 26L26 26L26 25L28 25L28 24L25 24L25 23L26 23L26 22L27 22L27 23L29 23L29 21L28 21L28 20L29 20L29 19L28 19L28 18L29 18L29 16L27 16L27 17L28 17L28 18L26 18L26 14L27 14L27 13L28 13L28 15L29 15L29 13L28 13L28 12L29 12L29 11L28 11L28 8L23 8L23 9L27 9L27 10L24 10L24 11L27 11L27 13L26 13L26 12L25 12L25 14L24 14L24 13L23 13L23 12L22 12L22 11L23 11L23 10L22 10L22 8L21 8L21 12L19 12L19 13L21 13L21 14L18 14L18 12L16 12L16 13L15 13L15 12L14 12L14 10L13 10L13 5L12 5L12 3L11 3L11 4L9 4L9 3L10 3L10 1L11 1L11 0ZM13 0L13 1L12 1L12 2L13 2L13 3L14 3L14 5L16 5L16 7L17 7L17 5L20 5L20 4L21 4L21 3L19 3L19 2L20 2L20 0L18 0L18 3L19 3L19 4L17 4L17 3L16 3L16 4L15 4L15 3L14 3L14 2L16 2L16 1L17 1L17 0ZM13 1L13 2L14 2L14 1ZM16 4L16 5L17 5L17 4ZM11 6L11 7L12 7L12 6ZM14 6L14 7L15 7L15 6ZM18 6L18 8L14 8L14 9L18 9L18 10L17 10L17 11L18 11L18 10L19 10L19 11L20 11L20 10L19 10L19 9L20 9L20 8L19 8L19 6ZM20 6L20 7L21 7L21 6ZM11 8L11 10L10 10L10 11L13 11L13 10L12 10L12 8ZM8 10L8 12L7 12L7 11L6 11L6 12L5 12L5 11L4 11L4 14L3 14L3 15L4 15L4 16L3 16L3 17L2 17L2 19L4 19L4 16L5 16L5 15L6 15L6 16L7 16L7 17L5 17L5 18L7 18L7 17L8 17L8 18L9 18L9 19L10 19L10 21L11 21L11 19L10 19L10 16L9 16L9 17L8 17L8 14L7 14L7 13L8 13L8 12L9 12L9 10ZM6 12L6 13L5 13L5 14L4 14L4 15L5 15L5 14L6 14L6 15L7 15L7 14L6 14L6 13L7 13L7 12ZM16 13L16 14L15 14L15 15L16 15L16 14L17 14L17 15L18 15L18 17L17 17L17 18L18 18L18 17L19 17L19 19L20 19L20 17L19 17L19 16L21 16L21 19L22 19L22 20L23 20L23 16L24 16L24 15L23 15L23 14L21 14L21 15L18 15L18 14L17 14L17 13ZM9 14L9 15L10 15L10 14ZM22 15L22 16L23 16L23 15ZM24 18L24 19L26 19L26 20L27 20L27 19L26 19L26 18ZM17 19L17 21L16 21L16 22L15 22L15 23L17 23L17 21L19 21L19 22L18 22L18 23L19 23L19 22L20 22L20 20L18 20L18 19ZM21 21L21 24L24 24L24 21ZM22 22L22 23L23 23L23 22ZM17 24L17 25L18 25L18 24ZM22 26L22 27L24 27L24 26ZM0 0L0 7L7 7L7 0ZM1 1L1 6L6 6L6 1ZM2 2L2 5L5 5L5 2ZM22 0L22 7L29 7L29 0ZM23 1L23 6L28 6L28 1ZM24 2L24 5L27 5L27 2ZM0 22L0 29L7 29L7 22ZM1 23L1 28L6 28L6 23ZM2 24L2 27L5 27L5 24Z" fill="#000000"/></g></g></svg>
