<?xml version="1.0" encoding="UTF-8"?>
<svg xmlns="http://www.w3.org/2000/svg" version="1.1" width="300" height="300" viewBox="0 0 300 300"><rect x="0" y="0" width="300" height="300" fill="#ffffff"/><g transform="scale(9.091)"><g transform="translate(2,2)"><path fill-rule="evenodd" d="M10 0L10 1L9 1L9 2L8 2L8 4L9 4L9 5L10 5L10 2L12 2L12 3L13 3L13 4L11 4L11 5L12 5L12 7L11 7L11 6L10 6L10 7L11 7L11 9L10 9L10 8L9 8L9 10L8 10L8 8L6 8L6 9L5 9L5 8L3 8L3 9L2 9L2 10L3 10L3 9L4 9L4 10L5 10L5 11L7 11L7 12L6 12L6 13L5 13L5 12L4 12L4 11L3 11L3 16L2 16L2 14L1 14L1 16L2 16L2 17L0 17L0 21L4 21L4 19L5 19L5 18L3 18L3 16L4 16L4 15L5 15L5 14L6 14L6 15L7 15L7 14L6 14L6 13L7 13L7 12L8 12L8 13L10 13L10 14L11 14L11 13L12 13L12 12L13 12L13 14L12 14L12 15L11 15L11 16L12 16L12 17L11 17L11 18L10 18L10 17L9 17L9 16L10 16L10 15L9 15L9 14L8 14L8 17L7 17L7 16L6 16L6 17L7 17L7 18L6 18L6 19L7 19L7 20L5 20L5 21L7 21L7 20L8 20L8 23L9 23L9 22L10 22L10 24L12 24L12 25L10 25L10 27L9 27L9 28L10 28L10 27L11 27L11 26L12 26L12 27L14 27L14 26L15 26L15 27L16 27L16 28L17 28L17 27L19 27L19 28L20 28L20 29L21 29L21 27L22 27L22 28L23 28L23 29L25 29L25 27L26 27L26 29L28 29L28 28L27 28L27 27L29 27L29 26L27 26L27 27L26 27L26 26L25 26L25 25L28 25L28 22L29 22L29 21L28 21L28 20L29 20L29 19L28 19L28 18L27 18L27 17L28 17L28 16L29 16L29 13L28 13L28 11L29 11L29 9L27 9L27 8L25 8L25 9L24 9L24 11L22 11L22 10L23 10L23 9L21 9L21 6L20 6L20 5L21 5L21 4L20 4L20 3L21 3L21 1L20 1L20 0L18 0L18 1L20 1L20 3L18 3L18 2L14 2L14 1L16 1L16 0L14 0L14 1L13 1L13 2L12 2L12 0ZM15 3L15 4L14 4L14 5L13 5L13 7L14 7L14 5L15 5L15 7L16 7L16 8L13 8L13 9L11 9L11 11L8 11L8 10L7 10L7 9L6 9L6 10L7 10L7 11L8 11L8 12L10 12L10 13L11 13L11 11L12 11L12 10L13 10L13 11L14 11L14 12L15 12L15 14L13 14L13 16L14 16L14 15L15 15L15 17L16 17L16 18L17 18L17 19L14 19L14 20L13 20L13 18L12 18L12 19L11 19L11 21L14 21L14 22L13 22L13 23L12 23L12 24L13 24L13 23L15 23L15 24L14 24L14 25L12 25L12 26L14 26L14 25L15 25L15 24L16 24L16 27L17 27L17 26L18 26L18 23L20 23L20 20L21 20L21 19L22 19L22 20L23 20L23 18L24 18L24 20L26 20L26 22L25 22L25 24L27 24L27 22L28 22L28 21L27 21L27 20L26 20L26 19L27 19L27 18L26 18L26 19L25 19L25 17L27 17L27 16L28 16L28 14L27 14L27 10L26 10L26 9L25 9L25 12L23 12L23 13L25 13L25 14L27 14L27 16L25 16L25 15L24 15L24 14L21 14L21 15L20 15L20 13L21 13L21 10L20 10L20 9L18 9L18 8L19 8L19 7L20 7L20 6L19 6L19 7L18 7L18 6L17 6L17 7L16 7L16 5L17 5L17 4L18 4L18 3ZM15 4L15 5L16 5L16 4ZM19 4L19 5L20 5L20 4ZM8 6L8 7L9 7L9 6ZM0 10L0 12L1 12L1 13L2 13L2 11L1 11L1 10ZM14 10L14 11L15 11L15 12L16 12L16 13L18 13L18 14L15 14L15 15L16 15L16 16L17 16L17 17L18 17L18 16L19 16L19 13L20 13L20 12L18 12L18 11L19 11L19 10L18 10L18 11L17 11L17 10ZM25 12L25 13L26 13L26 12ZM20 16L20 19L21 19L21 16ZM22 16L22 18L23 18L23 17L25 17L25 16ZM8 17L8 18L7 18L7 19L10 19L10 18L9 18L9 17ZM18 18L18 20L14 20L14 21L18 21L18 22L15 22L15 23L18 23L18 22L19 22L19 18ZM9 20L9 21L10 21L10 20ZM21 21L21 24L24 24L24 21ZM22 22L22 23L23 23L23 22ZM8 24L8 26L9 26L9 24ZM19 25L19 26L23 26L23 28L24 28L24 27L25 27L25 26L24 26L24 25ZM11 28L11 29L12 29L12 28ZM13 28L13 29L14 29L14 28ZM0 0L0 7L7 7L7 0ZM1 1L1 6L6 6L6 1ZM2 2L2 5L5 5L5 2ZM22 0L22 7L29 7L29 0ZM23 1L23 6L28 6L28 1ZM24 2L24 5L27 5L27 2ZM0 22L0 29L7 29L7 22ZM1 23L1 28L6 28L6 23ZM2 24L2 27L5 27L5 24Z" fill="#000000"/></g></g></svg>
