<?xml version="1.0" encoding="UTF-8"?>
<svg xmlns="http://www.w3.org/2000/svg" version="1.1" width="300" height="300" viewBox="0 0 300 300"><rect x="0" y="0" width="300" height="300" fill="#ffffff"/><g transform="scale(9.091)"><g transform="translate(2,2)"><path fill-rule="evenodd" d="M8 0L8 3L9 3L9 5L8 5L8 9L9 9L9 10L6 10L6 11L5 11L5 8L2 8L2 9L1 9L1 12L3 12L3 13L1 13L1 15L0 15L0 21L1 21L1 18L2 18L2 19L4 19L4 20L5 20L5 21L7 21L7 20L6 20L6 19L7 19L7 18L6 18L6 17L7 17L7 16L8 16L8 17L9 17L9 18L10 18L10 19L11 19L11 20L10 20L10 22L11 22L11 21L12 21L12 19L14 19L14 20L13 20L13 23L12 23L12 24L13 24L13 25L12 25L12 27L11 27L11 25L10 25L10 24L11 24L11 23L9 23L9 24L8 24L8 27L9 27L9 28L10 28L10 27L11 27L11 29L16 29L16 28L17 28L17 27L18 27L18 26L16 26L16 25L17 25L17 24L16 24L16 23L15 23L15 22L16 22L16 20L17 20L17 23L18 23L18 20L17 20L17 19L18 19L18 17L17 17L17 16L18 16L18 15L19 15L19 16L22 16L22 17L20 17L20 18L19 18L19 21L20 21L20 23L19 23L19 24L18 24L18 25L19 25L19 26L20 26L20 27L19 27L19 28L20 28L20 27L21 27L21 28L22 28L22 25L24 25L24 26L25 26L25 27L24 27L24 29L25 29L25 27L27 27L27 29L28 29L28 28L29 28L29 27L28 27L28 25L29 25L29 24L28 24L28 25L26 25L26 26L25 26L25 22L26 22L26 23L27 23L27 21L29 21L29 17L27 17L27 16L28 16L28 15L27 15L27 14L28 14L28 13L29 13L29 10L27 10L27 9L29 9L29 8L26 8L26 9L24 9L24 8L18 8L18 9L24 9L24 10L23 10L23 11L24 11L24 12L23 12L23 13L22 13L22 12L20 12L20 14L21 14L21 13L22 13L22 15L19 15L19 14L16 14L16 13L18 13L18 12L16 12L16 11L18 11L18 10L17 10L17 9L16 9L16 7L17 7L17 6L16 6L16 7L15 7L15 5L17 5L17 2L16 2L16 0L15 0L15 1L14 1L14 2L16 2L16 4L14 4L14 3L13 3L13 2L12 2L12 3L11 3L11 2L9 2L9 0ZM11 0L11 1L12 1L12 0ZM17 0L17 1L19 1L19 3L18 3L18 7L19 7L19 6L20 6L20 7L21 7L21 6L20 6L20 5L21 5L21 4L20 4L20 3L21 3L21 2L20 2L20 1L21 1L21 0L20 0L20 1L19 1L19 0ZM12 3L12 4L13 4L13 8L12 8L12 6L11 6L11 4L10 4L10 5L9 5L9 7L10 7L10 6L11 6L11 9L14 9L14 11L13 11L13 10L12 10L12 13L11 13L11 10L9 10L9 11L8 11L8 12L9 12L9 13L6 13L6 14L5 14L5 15L6 15L6 16L7 16L7 15L9 15L9 13L10 13L10 14L11 14L11 15L14 15L14 17L13 17L13 16L12 16L12 17L11 17L11 16L9 16L9 17L10 17L10 18L11 18L11 19L12 19L12 17L13 17L13 18L14 18L14 19L15 19L15 18L14 18L14 17L15 17L15 16L16 16L16 15L15 15L15 14L14 14L14 13L13 13L13 12L14 12L14 11L15 11L15 9L14 9L14 8L15 8L15 7L14 7L14 4L13 4L13 3ZM19 4L19 5L20 5L20 4ZM6 8L6 9L7 9L7 8ZM2 9L2 10L3 10L3 9ZM20 10L20 11L22 11L22 10ZM25 10L25 12L24 12L24 13L25 13L25 12L26 12L26 13L27 13L27 12L28 12L28 11L27 11L27 12L26 12L26 10ZM4 11L4 13L3 13L3 16L1 16L1 17L2 17L2 18L4 18L4 17L3 17L3 16L4 16L4 13L5 13L5 11ZM6 11L6 12L7 12L7 11ZM9 11L9 12L10 12L10 11ZM12 13L12 14L13 14L13 13ZM6 14L6 15L7 15L7 14ZM23 14L23 17L22 17L22 18L20 18L20 19L21 19L21 20L23 20L23 19L24 19L24 20L25 20L25 21L27 21L27 20L28 20L28 19L27 19L27 17L26 17L26 16L27 16L27 15L26 15L26 14L25 14L25 15L24 15L24 14ZM25 15L25 16L24 16L24 17L23 17L23 18L22 18L22 19L23 19L23 18L24 18L24 17L25 17L25 18L26 18L26 17L25 17L25 16L26 16L26 15ZM16 17L16 18L17 18L17 17ZM5 18L5 19L6 19L6 18ZM8 19L8 22L9 22L9 19ZM25 19L25 20L26 20L26 19ZM21 21L21 24L24 24L24 21ZM22 22L22 23L23 23L23 22ZM28 22L28 23L29 23L29 22ZM14 24L14 25L13 25L13 26L15 26L15 25L16 25L16 24ZM19 24L19 25L20 25L20 24ZM9 25L9 27L10 27L10 25ZM15 27L15 28L16 28L16 27ZM0 0L0 7L7 7L7 0ZM1 1L1 6L6 6L6 1ZM2 2L2 5L5 5L5 2ZM22 0L22 7L29 7L29 0ZM23 1L23 6L28 6L28 1ZM24 2L24 5L27 5L27 2ZM0 22L0 29L7 29L7 22ZM1 23L1 28L6 28L6 23ZM2 24L2 27L5 27L5 24Z" fill="#000000"/></g></g></svg>
