<?xml version="1.0" encoding="UTF-8"?>
<svg xmlns="http://www.w3.org/2000/svg" version="1.1" width="300" height="300" viewBox="0 0 300 300"><rect x="0" y="0" width="300" height="300" fill="#ffffff"/><g transform="scale(9.091)"><g transform="translate(2,2)"><path fill-rule="evenodd" d="M8 0L8 3L9 3L9 0ZM13 0L13 1L10 1L10 2L11 2L11 3L10 3L10 4L9 4L9 5L8 5L8 9L10 9L10 10L13 10L13 9L14 9L14 8L15 8L15 6L16 6L16 7L17 7L17 5L13 5L13 4L14 4L14 3L16 3L16 4L17 4L17 3L18 3L18 7L19 7L19 4L20 4L20 5L21 5L21 4L20 4L20 3L21 3L21 2L20 2L20 1L21 1L21 0L20 0L20 1L19 1L19 0L18 0L18 1L19 1L19 2L16 2L16 1L17 1L17 0L15 0L15 2L14 2L14 3L12 3L12 2L13 2L13 1L14 1L14 0ZM11 3L11 4L12 4L12 3ZM9 5L9 8L10 8L10 9L11 9L11 7L12 7L12 6L13 6L13 8L12 8L12 9L13 9L13 8L14 8L14 6L13 6L13 5ZM10 6L10 7L11 7L11 6ZM20 6L20 7L21 7L21 6ZM2 8L2 9L1 9L1 10L2 10L2 11L0 11L0 12L1 12L1 13L0 13L0 14L1 14L1 15L0 15L0 16L1 16L1 17L0 17L0 21L1 21L1 17L2 17L2 18L3 18L3 17L5 17L5 16L6 16L6 17L7 17L7 18L6 18L6 19L8 19L8 22L9 22L9 23L10 23L10 24L11 24L11 22L10 22L10 21L12 21L12 20L13 20L13 21L14 21L14 18L13 18L13 17L15 17L15 13L16 13L16 14L17 14L17 15L16 15L16 17L17 17L17 15L19 15L19 16L22 16L22 17L20 17L20 18L17 18L17 20L16 20L16 18L15 18L15 20L16 20L16 21L15 21L15 22L14 22L14 23L15 23L15 26L16 26L16 25L17 25L17 23L18 23L18 24L20 24L20 25L18 25L18 29L19 29L19 28L20 28L20 27L21 27L21 28L22 28L22 25L24 25L24 26L25 26L25 27L24 27L24 29L25 29L25 27L26 27L26 26L27 26L27 29L28 29L28 28L29 28L29 27L28 27L28 25L29 25L29 23L28 23L28 21L29 21L29 17L28 17L28 14L27 14L27 13L29 13L29 10L27 10L27 11L28 11L28 12L27 12L27 13L24 13L24 12L25 12L25 9L24 9L24 8L18 8L18 9L17 9L17 8L16 8L16 9L15 9L15 10L16 10L16 12L15 12L15 13L13 13L13 14L12 14L12 12L13 12L13 11L12 11L12 12L11 12L11 11L10 11L10 12L8 12L8 13L7 13L7 12L6 12L6 11L7 11L7 10L6 10L6 9L7 9L7 8L6 8L6 9L5 9L5 8ZM26 8L26 9L29 9L29 8ZM4 9L4 10L3 10L3 11L4 11L4 10L5 10L5 9ZM16 9L16 10L17 10L17 9ZM18 9L18 11L19 11L19 15L22 15L22 13L23 13L23 12L24 12L24 11L23 11L23 10L24 10L24 9ZM20 10L20 11L22 11L22 10ZM2 12L2 13L3 13L3 12ZM4 12L4 15L5 15L5 13L6 13L6 14L7 14L7 15L6 15L6 16L7 16L7 15L8 15L8 14L9 14L9 13L8 13L8 14L7 14L7 13L6 13L6 12ZM10 12L10 14L11 14L11 15L12 15L12 16L10 16L10 15L9 15L9 16L10 16L10 17L8 17L8 18L10 18L10 17L11 17L11 19L13 19L13 18L12 18L12 17L13 17L13 16L14 16L14 14L13 14L13 15L12 15L12 14L11 14L11 12ZM20 12L20 14L21 14L21 13L22 13L22 12ZM2 14L2 15L1 15L1 16L2 16L2 17L3 17L3 16L2 16L2 15L3 15L3 14ZM23 14L23 17L22 17L22 18L20 18L20 19L21 19L21 20L23 20L23 19L24 19L24 20L25 20L25 21L27 21L27 20L28 20L28 19L27 19L27 17L26 17L26 16L27 16L27 15L26 15L26 14L25 14L25 15L24 15L24 14ZM25 15L25 16L24 16L24 17L23 17L23 18L22 18L22 19L23 19L23 18L24 18L24 17L25 17L25 16L26 16L26 15ZM25 18L25 20L27 20L27 19L26 19L26 18ZM4 19L4 20L2 20L2 21L4 21L4 20L5 20L5 21L7 21L7 20L5 20L5 19ZM9 19L9 21L10 21L10 19ZM17 20L17 21L18 21L18 22L19 22L19 23L20 23L20 21L18 21L18 20ZM21 21L21 24L24 24L24 21ZM12 22L12 24L13 24L13 22ZM15 22L15 23L16 23L16 22ZM22 22L22 23L23 23L23 22ZM25 22L25 26L26 26L26 25L27 25L27 24L28 24L28 23L26 23L26 22ZM8 24L8 27L9 27L9 26L10 26L10 27L11 27L11 28L9 28L9 29L11 29L11 28L12 28L12 29L13 29L13 28L14 28L14 26L13 26L13 25L12 25L12 26L13 26L13 27L11 27L11 25L9 25L9 24ZM19 26L19 27L20 27L20 26ZM15 28L15 29L16 29L16 28ZM0 0L0 7L7 7L7 0ZM1 1L1 6L6 6L6 1ZM2 2L2 5L5 5L5 2ZM22 0L22 7L29 7L29 0ZM23 1L23 6L28 6L28 1ZM24 2L24 5L27 5L27 2ZM0 22L0 29L7 29L7 22ZM1 23L1 28L6 28L6 23ZM2 24L2 27L5 27L5 24Z" fill="#000000"/></g></g></svg>
